<?xml version="1.0" standalone="no"?>
<!DOCTYPE svg PUBLIC "-//W3C//DTD SVG 20010904//EN"
 "http://www.w3.org/TR/2001/REC-SVG-20010904/DTD/svg10.dtd">
<svg version="1.0" xmlns="http://www.w3.org/2000/svg"
 width="520.000000pt" height="520.000000pt" viewBox="0 0 520.000000 520.000000"
 preserveAspectRatio="xMidYMid meet">
<metadata>
Created by potrace 1.14, written by Peter Selinger 2001-2017
</metadata>
<g transform="translate(0.000000,520.000000) scale(0.100000,-0.100000)"
fill="#000000" stroke="none">
<path d="M703 4539 c-19 -6 -35 -18 -39 -32 -4 -12 -7 -267 -6 -566 0 -326 -3
-551 -9 -562 -5 -10 -41 -57 -81 -106 -40 -48 -103 -128 -140 -178 -37 -49
-72 -95 -77 -101 -16 -19 -38 -68 -49 -106 -8 -31 -7 -41 6 -58 22 -25 55 -32
182 -35 155 -3 149 -2 160 -31 9 -22 17 -1602 10 -1894 -2 -100 3 -116 37
-123 44 -8 3747 -1 3766 7 11 6 17 19 17 40 0 17 0 56 0 86 0 30 0 63 0 73 0
9 0 29 1 45 0 15 0 36 0 47 -1 11 0 43 2 70 2 28 -1 56 -6 63 -5 6 -6 12 -1
12 5 0 9 23 9 50 0 28 -4 50 -8 50 -5 0 -5 5 -2 11 10 15 12 149 2 149 -5 0
-5 5 -1 11 10 16 11 119 1 119 -5 0 -5 5 -2 11 11 16 12 69 3 69 -5 0 -5 8 1
17 5 10 5 26 1 39 -5 12 -7 24 -4 27 9 9 10 77 2 77 -5 0 -6 5 -3 11 11 16 12
69 2 69 -4 0 -5 6 0 13 10 16 10 38 0 60 -4 9 -4 17 0 17 11 0 10 61 -1 78 -4
7 -3 12 1 12 10 0 10 61 -1 78 -4 7 -3 12 1 12 10 0 8 94 -3 111 -5 8 -3 10 6
4 8 -5 11 -4 7 2 -8 12 -10 69 -4 106 2 15 0 27 -5 27 -5 0 -6 5 -2 11 10 16
11 109 1 109 -5 0 -5 5 -1 12 10 16 12 58 2 64 -4 3 -3 15 2 28 4 12 5 28 1
34 -10 16 -5 76 8 101 11 19 30 27 55 22 12 -3 56 -2 159 2 76 3 95 11 98 42
0 6 2 19 4 30 5 27 -31 100 -58 118 -12 8 -67 38 -122 67 -55 30 -117 64 -137
77 -21 13 -40 23 -42 23 -2 0 -37 19 -78 43 -40 24 -80 46 -88 50 -8 4 -31 17
-51 30 -33 21 -105 63 -332 199 -54 32 -104 58 -112 58 -7 0 -18 7 -25 15 -7
8 -18 15 -25 15 -11 0 -38 14 -195 102 -25 14 -85 46 -135 73 -49 26 -95 51
-100 56 -6 4 -49 28 -95 52 -113 59 -174 93 -237 133 -44 28 -197 106 -213
109 -3 0 -9 3 -15 7 -25 15 -171 95 -280 153 -49 26 -95 51 -101 56 -6 5 -14
6 -17 2 -4 -3 -7 -2 -7 4 0 6 -17 18 -37 27 -21 9 -60 30 -88 46 -27 17 -58
33 -67 37 -10 3 -18 9 -18 14 0 5 -3 8 -7 7 -5 -1 -26 4 -48 12 -22 7 -49 14
-60 14 -11 1 -24 4 -30 8 -5 3 -53 5 -105 4 -80 -2 -104 -7 -150 -29 -30 -15
-71 -41 -90 -57 -19 -17 -59 -52 -89 -78 -30 -26 -63 -53 -75 -61 -12 -8 -47
-38 -79 -67 -93 -83 -104 -67 -106 151 -1 81 -6 156 -12 166 -5 10 -24 22 -42
27 -42 12 -493 12 -534 1z"/>
</g>
</svg>
